<svg id="Layer_1" data-name="Layer 1" fill="#724b3f" xmlns="http://www.w3.org/2000/svg" viewBox="279.5 233.7 521 613.42"><title>time capsul1 (1)</title><path d="M586.21,249.54A289.43,289.43,0,0,1,778.5,322.16L704.72,452.84A54,54,0,0,0,694.2,426c-12.51-17.38-30.17-26.95-49.78-26.95-19.29,0-39.56,9.81-50,23.55-7-13.54-16.45-23.9-28.15-30.62-12.81-7.35-26-11.08-39.33-11.08a71.53,71.53,0,0,0-46,16.79c-30,25.14-31.89,58.4-21.94,86.44-12.24,3.69-22.53,9.3-30.73,16.74A79.43,79.43,0,0,0,418,512.14c-12.06,16.17-17.14,37.33-14.32,59.56,2.86,22.7,14.23,41.4,33.81,55.58a72,72,0,0,0,38,13.75c1.47.09,3,.14,4.46.14a87.31,87.31,0,0,0,32-6.42c4.29,29.37,19.72,49.17,46.07,59,10.88,4.05,20.17,5.94,29.27,5.94,17.76,0,34.16-7.18,51.61-22.59,18.5-16.34,22.1-44.37,21.79-65.42a95.49,95.49,0,0,0,18.64,1.82A92.08,92.08,0,0,0,697,611.85l4,6.91,79.5,138.12A290.88,290.88,0,0,1,295.34,540.41c0-160.38,130.48-290.87,290.87-290.87m0-15.84C416.83,233.7,279.5,371,279.5,540.41S416.83,847.12,586.21,847.12A305.67,305.67,0,0,0,800.5,759.85l-85.76-149c14.92-6.53,26.54-17.38,33.14-31.64a69.08,69.08,0,0,0,.53-57.66c-7.48-16.95-21.55-31.21-35-35.49-2.51-.79-5.23-1.53-8-2.19L798.47,319A305.73,305.73,0,0,0,586.21,233.7ZM479.9,625.32c-1.17,0-2.34,0-3.51-.1a56.18,56.18,0,0,1-29.65-10.77c-15.42-11.17-25-25.85-27.38-44.73-2.14-16.85,1-34.3,11.3-48.11a62.59,62.59,0,0,1,8.19-9c11.4-10.35,27.17-15.18,43-17-6.26-10.43-28.88-54.05,9.45-85.95a56,56,0,0,1,35.62-12.91c9.23,0,19.87,2.33,31.45,9,19.54,11.22,28.23,34.48,31.74,55,0,0,5.75-8.21,14.73-25.16,5.23-9.9,21.67-20.66,39.6-20.66,12.8,0,26.35,5.47,37.13,20.66,0,0,20.94,22.94-6.15,63.47,0,0,19.27,2.22,31.9,6.23s37.41,32.85,22.31,65.48c-8.88,19.17-30,26.91-50.29,26.91-14.21,0-28-3.8-36.77-10.14,0,0,10.54,55.9-14.15,77.71-15.33,13.54-28.34,18.62-41.12,18.62-7.83,0-15.58-1.91-23.73-4.94-21.41-8-39.31-25.9-36.78-70.34-.16,2.57-12.91,8-14.78,8.87-10,4.75-21,7.86-32.09,7.86Zm46.87-16.74h0Z"></path></svg>