<svg id="Layer_1" data-name="Layer 1" xmlns="http://www.w3.org/2000/svg" viewBox="0 0 896.28 407.91"><defs><style>.cls-1{fill:#fff;}</style></defs><title>CYCLONE</title><path d="M353.85,621.55A178.24,178.24,0,1,1,370.26,365.9l-60.54,91.86c1.57.49,3.12,1,4.54,1.59,7.65,3,15.24,11.85,18.9,22a40.15,40.15,0,0,1-2.61,33.41,37.08,37.08,0,0,1-20.47,17Z" transform="translate(-60.13 -307.54)"/><path class="cls-1" d="M320.29,509.11c-10.05,18.3-39.38,16-51.13,6.24,0,0,3.87,32.83-11.31,44.49s-26,10.83-38.14,5.34S198,548.59,201.19,522.93c-.18,1.48-7.8,4.11-8.92,4.56a42.71,42.71,0,0,1-21,3.08,32.77,32.77,0,0,1-16.76-7.43c-8.49-7.09-13.46-16-14.09-27-.57-9.85,1.95-19.84,8.47-27.44a36.73,36.73,0,0,1,5.11-4.86c7-5.54,16.35-7.72,25.6-8.16-3.22-6.29-14.59-32.48,8.91-49.45,0,0,17.41-14.07,39,.4,10.88,7.29,15,21.12,16.21,33.15a153,153,0,0,0,9.54-14c5.87-9.47,30.93-19.11,44.49,3.06,0,0,11.22,14.14-6.1,36.56,0,0,11.08,2.05,18.24,4.88S330.35,490.79,320.29,509.11Z" transform="translate(-60.13 -307.54)"/><polygon points="882.6 62.15 849.17 62.15 812.77 62.15 804.73 99.55 790.52 165.62 781.97 205.4 766.28 278.37 758.98 312.3 795.39 312.3 828.81 312.3 842.49 312.3 849.79 278.37 836.11 278.37 802.68 278.37 818.38 205.4 851.8 205.4 860.35 165.62 826.93 165.62 841.13 99.55 874.55 99.55 888.24 99.55 896.28 62.15 882.6 62.15"/><polygon points="775.08 205.4 783.63 165.62 797.84 99.55 805.88 62.15 772.12 62.15 764.08 99.55 749.88 165.62 741.32 205.4 739.9 205.4 737.59 165.62 733.74 99.55 731.56 62.15 698 62.15 689.96 99.55 675.75 165.62 667.2 205.4 651.51 278.37 644.21 312.3 677.77 312.3 685.07 278.37 700.76 205.4 708.59 168.99 711.14 168.99 713.31 205.4 717.67 278.37 719.4 307.35 719.7 312.3 752.09 312.3 759.39 278.37 775.08 205.4"/><polygon points="507.82 278.37 523.51 205.4 532.07 165.62 546.27 99.55 554.31 62.15 518.34 62.15 510.3 99.55 500.02 147.39 496.1 165.62 487.54 205.4 483.01 226.5 471.85 278.37 464.56 312.3 500.53 312.3 541.05 312.3 549.52 312.3 556.98 278.37 548.35 278.37 507.82 278.37"/><polygon points="406.45 99.55 411.46 89.02 424.24 62.15 417.24 62.15 388.04 62.15 370.84 99.55 348.82 147.46 348.82 99.55 348.82 62.15 312.25 62.15 314.07 99.55 317.28 165.62 319.22 205.4 304.08 278.37 297.04 312.3 333.18 312.3 340.45 278.37 356.1 205.4 375.02 165.62 406.45 99.55"/><path d="M532.76,570.07s0-.06,0-.09L540.51,534H506.76L499,570V570c-1.92,8.86-6,13.7-10.59,15.87a15.09,15.09,0,0,1-6.46,1.42,12.49,12.49,0,0,1-6.06-1.42c-3.75-2.08-6-6.56-4.34-14.28a.06.06,0,0,1,0,0l12.61-58.65,8.55-39.79,11.06-51.46h0c2.05-7.39,4.13-11.88,6.52-14.6,2.88-3.26,6.21-3.94,10.47-3.94s6.77,1.57,8.41,3.94c2.78,4,2.63,10.31,1.58,15.17l-7,32.67h33.75l7.23-33.63a75.3,75.3,0,0,0,1.07-14.21c-.37-15.4-6.06-31.31-23-37.4a48.23,48.23,0,0,0-16.42-2.59,57.61,57.61,0,0,0-17.47,2.59c-18.8,5.91-30.87,21.17-37.8,37.4a98,98,0,0,0-5.62,17.75l-10.39,48.31-8.56,39.79L434.3,570v0a53.93,53.93,0,0,0-1,15.91c1.27,14.82,8.85,28.53,23.07,33.92a35.45,35.45,0,0,0,4.55,1.39,41.46,41.46,0,0,0,9.45,1,66.81,66.81,0,0,0,17.95-2.4l.11,0c16.91-4.73,31.05-16.31,39.13-33.92A77.45,77.45,0,0,0,532.76,570.07Z" transform="translate(-60.13 -307.54)"/><path d="M742.16,407.09c-.37-15.4-6.06-31.31-23-37.4a48.15,48.15,0,0,0-16.42-2.59,57.61,57.61,0,0,0-17.47,2.59c-18.79,5.91-30.86,21.17-37.8,37.4a98,98,0,0,0-5.62,17.75l-10.39,48.31-8.55,39.79-12.27,57v0a54.27,54.27,0,0,0-1,15.91,47.47,47.47,0,0,0,4,15.67h0c3.78,8.18,10.09,14.86,19,18.25a35.3,35.3,0,0,0,4.54,1.39,41.61,41.61,0,0,0,9.46,1,66.74,66.74,0,0,0,17.94-2.4.35.35,0,0,0,.11,0c16.92-4.73,31-16.31,39.13-33.92a76.85,76.85,0,0,0,5.22-15.84.29.29,0,0,1,0-.09L716.84,534l4.54-21.1,8.55-39.79,3.92-18.22,7.23-33.63A74.47,74.47,0,0,0,742.16,407.09Zm-35,15.17-7,32.67-3.92,18.22-8.56,39.79L683.1,534,675.37,570V570c-1.92,8.86-6,13.7-10.6,15.87a15.05,15.05,0,0,1-6.45,1.42,12.46,12.46,0,0,1-6.06-1.42c-3.76-2.08-6-6.56-4.35-14.28v0l12.61-58.65,8.56-39.79,11.06-51.46h0c2.06-7.39,4.14-11.88,6.53-14.6,2.88-3.26,6.2-3.94,10.47-3.94,4.1,0,6.77,1.57,8.41,3.94C708.32,411.1,708.17,417.4,707.13,422.26Z" transform="translate(-60.13 -307.54)"/><rect x="372.63" y="348.52" width="46.36" height="5.29"/><rect x="393.16" y="351.9" width="5.29" height="54.21"/><path d="M546.13,715.2c-6.54,0-12-2-15.9-5.7s-6-9.13-6-15.52V656.49h5.29V694c0,10.12,6,15.93,16.56,15.93s17.76-6.06,17.76-15.08V656.49h5.29v38.34a19.24,19.24,0,0,1-6.66,14.82A25,25,0,0,1,546.13,715.2Z" transform="translate(-60.13 -307.54)"/><path d="M659.51,663.4C654.84,658.6,648,656,640.15,656H620.59v57.92h16c4.62,0,11.4-.69,17.51-4,8.18-4.38,12.66-12.22,13-22.68S664.82,668.87,659.51,663.4Zm2.27,23.68c-.53,18.7-16,21.49-25.18,21.49H625.88V661.24h14.27c4.51,0,10.87,1,15.57,5.85C660,671.49,662,678.22,661.78,687.08Z" transform="translate(-60.13 -307.54)"/><rect x="655.5" y="349.09" width="5.29" height="57.12"/><path d="M795.1,655.18c-7.54,0-13.93,2.81-18.5,8.14s-7.15,13.39-7.15,22.92c0,19.66,13.84,28.61,26.7,28.61a25.26,25.26,0,0,0,18.13-7.32c5.15-5.19,7.88-12.61,7.88-21.43C822.16,666.45,812.3,655.18,795.1,655.18Zm1,54.38c-10.65,0-21.41-7.21-21.41-23.32s7.61-25.77,20.36-25.77c18,0,21.77,13.94,21.77,25.63C816.87,702.31,806.46,709.56,796.15,709.56Z" transform="translate(-60.13 -307.54)"/><path d="M394,703.05c-2.68,7.89-10.23,12.4-19.84,12.4a34.89,34.89,0,0,1-8.26-1,25.75,25.75,0,0,1-16.6-12.7l4-3.91a20.58,20.58,0,0,0,13.89,11.47c5.43,1.31,10.41,1.17,14.4-.4a12.29,12.29,0,0,0,7.45-7.53,6.68,6.68,0,0,0-.4-5.81c-1.95-3.28-7.17-5.88-14.33-7.15-7.38-1.3-12.25-2.8-15.79-4.86-4.83-2.81-7.23-6.79-7.14-11.83a15.83,15.83,0,0,1,5-11.56c4.07-3.79,10.08-5.6,17.38-5.22,10.05.52,16.88,5.93,20.38,12.41l-4,4c-2.3-5.42-7.56-10.62-16.69-11.09-5.75-.3-10.55,1.06-13.51,3.81a10.64,10.64,0,0,0-3.33,7.79c-.11,5.82,5.09,9,18.54,11.38,9,1.58,15.16,4.92,18,9.67A11.91,11.91,0,0,1,394,703.05Z" transform="translate(-60.13 -307.54)"/><path d="M910.62,703.05c-2.68,7.89-10.23,12.4-19.84,12.4a34.89,34.89,0,0,1-8.26-1,25.73,25.73,0,0,1-16.59-12.7l3.94-3.91a20.58,20.58,0,0,0,13.89,11.47c5.43,1.31,10.41,1.17,14.4-.4a12.26,12.26,0,0,0,7.45-7.53,6.65,6.65,0,0,0-.4-5.81c-1.94-3.28-7.17-5.88-14.33-7.15-7.37-1.3-12.24-2.8-15.79-4.86-4.83-2.81-7.22-6.79-7.13-11.83a15.82,15.82,0,0,1,5-11.56c4.07-3.79,10.09-5.6,17.39-5.22,10,.52,16.87,5.93,20.37,12.41l-4,4c-2.3-5.42-7.57-10.62-16.7-11.09-5.75-.3-10.55,1.06-13.5,3.81a10.65,10.65,0,0,0-3.34,7.79c-.11,5.82,5.09,9,18.55,11.38,8.94,1.58,15.15,4.92,18,9.67A11.91,11.91,0,0,1,910.62,703.05Z" transform="translate(-60.13 -307.54)"/></svg>